<svg width="76" height="76" viewBox="0 0 76 76" fill="none" xmlns="http://www.w3.org/2000/svg">
<path d="M48.9675 21.9076C47.7898 20.3888 46.1883 19.2532 44.3652 18.6447L39.6571 17.114C39.2956 16.9853 38.9828 16.748 38.7616 16.4344C38.5404 16.1209 38.4217 15.7466 38.4217 15.363C38.4217 14.9793 38.5404 14.605 38.7616 14.2915C38.9828 13.978 39.2956 13.7406 39.6571 13.6119L42.0829 12.8227L42.0727 12.8193L44.3618 12.0744C45.757 11.5983 47.0246 10.8087 48.067 9.76626C49.1094 8.72383 49.899 7.45631 50.3752 6.06109L50.4127 5.94492L51.9434 1.24017C52.0707 0.876346 52.3079 0.561076 52.6222 0.33801C52.9365 0.114945 53.3124 -0.00488281 53.6979 -0.00488281C54.0833 -0.00488281 54.4592 0.114945 54.7735 0.33801C55.0879 0.561076 55.3251 0.876346 55.4523 1.24017L56.9796 5.94492C57.4558 7.37559 58.2594 8.67531 59.3265 9.74063C60.3936 10.8059 61.6947 11.6074 63.1262 12.0813L67.8309 13.6119L67.9266 13.6358C68.288 13.7645 68.6008 14.0019 68.822 14.3154C69.0432 14.6289 69.1619 15.0032 69.1619 15.3869C69.1619 15.7706 69.0432 16.1448 68.822 16.4584C68.6008 16.7719 68.288 17.0093 67.9266 17.1379L63.2184 18.6686C62.6235 18.8654 62.0491 19.1194 61.5032 19.4271L61.5169 19.4442C59.9929 20.3028 58.7297 21.5578 57.8611 23.0761L57.8508 23.0658C57.5356 23.6197 57.2758 24.2034 57.0752 24.8083L55.5446 29.5097C55.4166 29.8723 55.1793 30.1863 54.8654 30.4085C54.5515 30.6306 54.1764 30.7499 53.7918 30.7499C53.4073 30.7499 53.0322 30.6306 52.7183 30.4085C52.4043 30.1863 52.167 29.8723 52.0391 29.5097L50.5084 24.8049C50.1642 23.7588 49.6443 22.779 48.9709 21.9076M75.2622 34.8943L72.645 34.047C71.8505 33.7822 71.1286 33.3359 70.5367 32.7434C69.9448 32.1509 69.4992 31.4286 69.2352 30.6338L68.381 28.0234C68.3102 27.8216 68.1786 27.6468 68.0041 27.5231C67.8297 27.3993 67.6211 27.3329 67.4072 27.3329C67.1934 27.3329 66.9848 27.3993 66.8104 27.5231C66.6359 27.6468 66.5042 27.8216 66.4335 28.0234L65.5862 30.6338C65.168 31.9077 64.2896 32.9799 63.1227 33.6404H63.1091V33.6473C62.8266 33.8067 62.5305 33.9404 62.2242 34.047L59.6104 34.8943C59.4086 34.9651 59.2337 35.0968 59.11 35.2712C58.9863 35.4457 58.9199 35.6542 58.9199 35.8681C58.9199 36.0819 58.9863 36.2905 59.11 36.465C59.2337 36.6394 59.4086 36.7711 59.6104 36.8418L62.2242 37.6926C63.0186 37.9576 63.7403 38.4041 64.3322 38.9965C64.924 39.589 65.3698 40.3112 65.634 41.1058L66.4847 43.7196C66.5541 43.9251 66.6869 44.1034 66.864 44.2287C66.9945 44.3213 67.1448 44.3823 67.3029 44.4068C67.4611 44.4314 67.6228 44.4188 67.7753 44.3701C67.9277 44.3214 68.0668 44.2378 68.1814 44.1261C68.296 44.0144 68.383 43.8776 68.4357 43.7264L69.2864 41.1161C69.5505 40.3208 69.9966 39.5981 70.5891 39.0056C71.1817 38.413 71.9044 37.9669 72.6997 37.7028L75.3134 36.8555C75.5152 36.7848 75.6901 36.6531 75.8138 36.4786C75.9375 36.3042 76.0039 36.0956 76.0039 35.8818C76.0039 35.6679 75.9375 35.4593 75.8138 35.2849C75.6901 35.1104 75.5152 34.9787 75.3134 34.908L75.2622 34.8943ZM64.8892 47.0201C64.3991 46.6713 63.9842 46.2275 63.6694 45.7149C62.7602 51.2354 60.2758 56.3758 56.5151 60.5182C52.7543 64.6605 47.8772 67.6286 42.47 69.0655C37.0629 70.5024 31.3557 70.347 26.0347 68.6181C20.7137 66.8891 16.0053 63.6601 12.4755 59.3193C8.94567 54.9785 6.74469 49.7105 6.13713 44.1488C5.52957 38.587 6.54128 32.9681 9.05065 27.9675C11.56 22.967 15.4602 18.7976 20.2825 15.9606C25.1047 13.1236 30.6437 11.7397 36.2336 11.9753C36.8606 11.23 37.6811 10.6719 38.6047 10.3627L43.2514 8.85251C43.7297 8.68851 44.1842 8.46642 44.6078 8.19651C41.4878 7.28614 38.2537 6.82594 35.0036 6.82984C16.1299 6.82642 0.830078 22.1263 0.830078 40.9965C0.830078 59.8702 16.1299 75.17 35.0036 75.17C51.5744 75.17 65.3948 63.3723 68.5142 47.7137C67.8956 47.8647 67.2517 47.8809 66.6262 47.7612C66.0008 47.6416 65.4084 47.3888 64.8892 47.0201ZM35.0002 56.3818C32.6708 56.3845 30.3714 55.8567 28.2763 54.8385C26.1813 53.8203 24.3456 52.3384 22.9086 50.5051C22.4872 49.9714 21.8711 49.6269 21.1957 49.5474C20.5204 49.468 19.8411 49.6601 19.3074 50.0814C18.7737 50.5028 18.4292 51.1189 18.3498 51.7943C18.2703 52.4696 18.4624 53.1489 18.8837 53.6826C20.8015 56.1226 23.2489 58.0947 26.041 59.4496C28.8331 60.8045 31.8967 61.5068 35.0002 61.5033C41.3552 61.5033 47.2318 58.5855 51.0995 53.6963C51.3081 53.432 51.4627 53.1292 51.5543 52.8052C51.6459 52.4812 51.6728 52.1423 51.6335 51.8079C51.5941 51.4735 51.4893 51.1502 51.325 50.8563C51.1607 50.5624 50.9401 50.3037 50.6758 50.0951C50.4116 49.8864 50.1088 49.7319 49.7848 49.6403C49.4608 49.5487 49.1219 49.5218 48.7875 49.5611C48.4531 49.6004 48.1297 49.7053 47.8358 49.8696C47.5419 50.0339 47.2833 50.2545 47.0747 50.5188C45.6375 52.3464 43.8038 53.8236 41.712 54.8387C39.6203 55.8538 37.3252 56.3803 35.0002 56.3783M29.021 34.1666C29.021 33.0339 28.571 31.9476 27.7701 31.1467C26.9692 30.3457 25.8829 29.8958 24.7502 29.8958C23.6175 29.8958 22.5312 30.3457 21.7302 31.1467C20.9293 31.9476 20.4793 33.0339 20.4793 34.1666C20.4793 35.2993 20.9293 36.3856 21.7302 37.1865C22.5312 37.9875 23.6175 38.4374 24.7502 38.4374C25.8829 38.4374 26.9692 37.9875 27.7701 37.1865C28.571 36.3856 29.021 35.2993 29.021 34.1666ZM49.521 34.1666C49.521 33.0339 49.071 31.9476 48.2701 31.1467C47.4692 30.3457 46.3829 29.8958 45.2502 29.8958C44.1175 29.8958 43.0312 30.3457 42.2302 31.1467C41.4293 31.9476 40.9793 33.0339 40.9793 34.1666C40.9793 35.2993 41.4293 36.3856 42.2302 37.1865C43.0312 37.9875 44.1175 38.4374 45.2502 38.4374C46.3829 38.4374 47.4692 37.9875 48.2701 37.1865C49.071 36.3856 49.521 35.2993 49.521 34.1666Z" fill="#B2B2B2"/>
</svg>
