<svg width="70" height="70" viewBox="0 0 70 70" fill="none" xmlns="http://www.w3.org/2000/svg">
<path d="M29.021 28.1668C29.0371 27.596 28.9387 27.0278 28.7314 26.4957C28.5241 25.9637 28.2122 25.4786 27.8142 25.0691C27.4162 24.6597 26.9401 24.3342 26.4141 24.112C25.8881 23.8897 25.3229 23.7752 24.7519 23.7752C24.1809 23.7752 23.6156 23.8897 23.0896 24.112C22.5636 24.3342 22.0876 24.6597 21.6895 25.0691C21.2915 25.4786 20.9796 25.9637 20.7724 26.4957C20.5651 27.0278 20.4666 27.596 20.4827 28.1668C20.5142 29.2782 20.9778 30.3334 21.7749 31.1084C22.5721 31.8833 23.6401 32.3169 24.7519 32.3169C25.8637 32.3169 26.9316 31.8833 27.7288 31.1084C28.526 30.3334 28.9896 29.2782 29.021 28.1668ZM49.521 28.1668C49.5371 27.596 49.4387 27.0278 49.2314 26.4957C49.0241 25.9637 48.7122 25.4786 48.3142 25.0691C47.9162 24.6597 47.4401 24.3342 46.9141 24.112C46.3881 23.8897 45.8229 23.7752 45.2519 23.7752C44.6809 23.7752 44.1156 23.8897 43.5896 24.112C43.0636 24.3342 42.5876 24.6597 42.1895 25.0691C41.7915 25.4786 41.4796 25.9637 41.2724 26.4957C41.0651 27.0278 40.9666 27.596 40.9827 28.1668C41.0142 29.2782 41.4778 30.3334 42.2749 31.1084C43.0721 31.8833 44.1401 32.3169 45.2519 32.3169C46.3637 32.3169 47.4316 31.8833 48.2288 31.1084C49.026 30.3334 49.4896 29.2782 49.521 28.1668ZM47.8127 41.8335C44.9085 41.8335 41.8096 42.5612 39.1309 43.6067C36.4762 44.6386 33.9581 46.0804 32.3317 47.7067C32.0871 47.9432 31.892 48.2261 31.7579 48.5388C31.6237 48.8515 31.5532 49.1878 31.5504 49.528C31.5476 49.8683 31.6126 50.2057 31.7416 50.5205C31.8706 50.8354 32.061 51.1214 32.3017 51.3619C32.5424 51.6024 32.8286 51.7925 33.1436 51.9212C33.4586 52.0499 33.7961 52.1146 34.1363 52.1115C34.4765 52.1083 34.8128 52.0375 35.1253 51.9031C35.4379 51.7686 35.7206 51.5733 35.9568 51.3284C36.8964 50.3922 38.7004 49.2716 40.9896 48.3832C43.2446 47.5052 45.7012 46.9551 47.8127 46.9551H49.8627C50.5423 46.9551 51.1941 46.6851 51.6746 46.2045C52.1552 45.724 52.4252 45.0722 52.4252 44.3926C52.4252 43.713 52.1552 43.0612 51.6746 42.5806C51.1941 42.1001 50.5423 41.8301 49.8627 41.8301L47.8127 41.8335ZM69.1737 35.0002C69.1737 16.1265 53.8738 0.82666 35.0002 0.82666C16.1265 0.82666 0.833497 16.1265 0.833497 35.0002C0.83008 53.8704 16.1265 69.1668 35.0002 69.1668C53.8738 69.1668 69.1737 53.867 69.1737 34.9967M5.95508 35.0002C5.91342 31.1592 6.63397 27.3481 8.07503 23.7874C9.51608 20.2268 11.649 16.9873 14.3504 14.2564C17.0518 11.5256 20.2679 9.35764 23.8128 7.87805C27.3576 6.39846 31.1607 5.63663 35.0019 5.63663C38.8431 5.63663 42.6462 6.39846 46.191 7.87805C49.7358 9.35764 52.952 11.5256 55.6533 14.2564C58.3547 16.9873 60.4877 20.2268 61.9287 23.7874C63.3698 27.3481 64.0903 31.1592 64.0487 35.0002C63.9657 42.6493 60.8689 49.9569 55.4306 55.3366C49.9923 60.7163 42.6514 63.7336 35.0019 63.7336C27.3523 63.7336 20.0115 60.7163 14.5732 55.3366C9.13485 49.9569 6.03804 42.6493 5.95508 35.0002Z" fill="#B2B2B2"/>
</svg>
