
<svg width="70" height="70" viewBox="0 0 70 70" fill="none" xmlns="http://www.w3.org/2000/svg">
<path d="M35.0002 0.82666C53.8738 0.82666 69.1737 16.1265 69.1737 35.0002C69.1737 53.8704 53.8738 69.1668 35.0002 69.1668C16.1265 69.1702 0.833497 53.8704 0.833497 35.0002C0.83008 16.1265 16.1265 0.82666 35.0002 0.82666ZM35.0002 5.95166C31.1592 5.91 27.3481 6.63055 23.7874 8.0716C20.2268 9.51266 16.9873 11.6456 14.2564 14.347C11.5256 17.0484 9.35764 20.2645 7.87805 23.8093C6.39847 27.3542 5.63663 31.1572 5.63663 34.9985C5.63663 38.8397 6.39847 42.6427 7.87805 46.1876C9.35764 49.7324 11.5256 52.9485 14.2564 55.6499C16.9873 58.3513 20.2268 60.4842 23.7874 61.9253C27.3481 63.3664 31.1592 64.0869 35.0002 64.0452C42.6493 63.9623 49.9569 60.8655 55.3366 55.4272C60.7163 49.9888 63.7336 42.648 63.7336 34.9985C63.7336 27.3489 60.7163 20.0081 55.3366 14.5697C49.9569 9.13143 42.6493 6.03462 35.0002 5.95166ZM35.0002 40.1183C40.5727 40.1183 45.7968 42.3528 49.6269 46.2512C49.8759 46.4883 50.0747 46.7731 50.2114 47.0886C50.3481 47.4042 50.4198 47.7439 50.4224 48.0878C50.425 48.4316 50.3584 48.7725 50.2265 49.09C50.0947 49.4075 49.9002 49.6953 49.6548 49.9361C49.4094 50.177 49.118 50.3659 48.798 50.4918C48.478 50.6177 48.136 50.6779 47.7923 50.6688C47.4486 50.6597 47.1102 50.5815 46.7973 50.4389C46.4844 50.2963 46.2034 50.0922 45.9711 49.8387C44.5417 48.38 42.8351 47.2217 40.9517 46.432C39.0682 45.6422 37.0459 45.2369 35.0036 45.2399C32.9558 45.2364 30.928 45.6434 29.0402 46.4368C27.1523 47.2302 25.4427 48.3939 24.0122 49.8592C23.7766 50.0997 23.496 50.2915 23.1863 50.4235C22.8767 50.5556 22.544 50.6253 22.2074 50.6288C21.8708 50.6323 21.5368 50.5695 21.2244 50.4439C20.9121 50.3183 20.6276 50.1324 20.3871 49.8968C20.1466 49.6613 19.9548 49.3806 19.8228 49.071C19.6908 48.7613 19.621 48.4287 19.6175 48.0921C19.614 47.7555 19.6769 47.4214 19.8025 47.1091C19.9281 46.7968 20.1139 46.5122 20.3495 46.2717C22.2572 44.3202 24.5364 42.7703 27.0526 41.7135C29.5687 40.6566 32.2711 40.1143 35.0002 40.1183ZM24.7502 23.896C25.321 23.8798 25.8892 23.9783 26.4213 24.1856C26.9533 24.3929 27.4384 24.7048 27.8479 25.1028C28.2573 25.5008 28.5828 25.9769 28.805 26.5029C29.0273 27.0289 29.1418 27.5941 29.1418 28.1651C29.1418 28.7361 29.0273 29.3014 28.805 29.8274C28.5828 30.3534 28.2573 30.8294 27.8479 31.2275C27.4384 31.6255 26.9533 31.9374 26.4213 32.1446C25.8892 32.3519 25.321 32.4504 24.7502 32.4342C23.6388 32.4028 22.5836 31.9392 21.8086 31.142C21.0337 30.3449 20.6001 29.2769 20.6001 28.1651C20.6001 27.0533 21.0337 25.9854 21.8086 25.1882C22.5836 24.391 23.6388 23.9274 24.7502 23.896ZM45.2502 23.896C45.821 23.8798 46.3892 23.9783 46.9213 24.1856C47.4533 24.3929 47.9384 24.7048 48.3479 25.1028C48.7573 25.5008 49.0828 25.9769 49.305 26.5029C49.5273 27.0289 49.6418 27.5941 49.6418 28.1651C49.6418 28.7361 49.5273 29.3014 49.305 29.8274C49.0828 30.3534 48.7573 30.8294 48.3479 31.2275C47.9384 31.6255 47.4533 31.9374 46.9213 32.1446C46.3892 32.3519 45.821 32.4504 45.2502 32.4342C44.1388 32.4028 43.0836 31.9392 42.3086 31.142C41.5337 30.3449 41.1001 29.2769 41.1001 28.1651C41.1001 27.0533 41.5337 25.9854 42.3086 25.1882C43.0836 24.391 44.1388 23.9274 45.2502 23.896Z" fill="#B2B2B2"/>
</svg>