<svg width="70" height="70" viewBox="0 0 70 70" fill="none" xmlns="http://www.w3.org/2000/svg">
<path d="M35.0002 0.82666C53.8738 0.82666 69.1737 16.1265 69.1737 35.0002C69.1737 53.8704 53.8738 69.1668 35.0002 69.1668C16.1265 69.1702 0.82666 53.8704 0.82666 35.0002C0.82666 16.1265 16.1265 0.82666 35.0002 0.82666ZM35.0002 5.95166C31.1592 5.91 27.3481 6.63055 23.7874 8.0716C20.2268 9.51266 16.9873 11.6456 14.2564 14.347C11.5256 17.0484 9.35764 20.2645 7.87805 23.8093C6.39846 27.3542 5.63663 31.1572 5.63663 34.9985C5.63663 38.8397 6.39846 42.6427 7.87805 46.1876C9.35764 49.7324 11.5256 52.9485 14.2564 55.6499C16.9873 58.3513 20.2268 60.4842 23.7874 61.9253C27.3481 63.3664 31.1592 64.0869 35.0002 64.0452C42.6493 63.9623 49.9569 60.8655 55.3366 55.4272C60.7163 49.9888 63.7336 42.648 63.7336 34.9985C63.7336 27.3489 60.7163 20.0081 55.3366 14.5697C49.9569 9.13143 42.6493 6.03462 35.0002 5.95166ZM22.912 44.5087C24.3501 46.3393 26.1857 47.8187 28.28 48.8351C30.3743 49.8514 32.6723 50.3781 35.0002 50.3752C37.3255 50.378 39.6211 49.8523 41.7134 48.8378C43.8058 47.8233 45.6402 46.3465 47.0781 44.519C47.2867 44.2549 47.5453 44.0346 47.8391 43.8705C48.1329 43.7064 48.4562 43.6017 48.7904 43.5625C49.1247 43.5234 49.4633 43.5504 49.7871 43.6421C50.1109 43.7338 50.4135 43.8884 50.6775 44.097C50.9416 44.3057 51.162 44.5643 51.3261 44.8581C51.4902 45.1519 51.5948 45.4751 51.634 45.8094C51.6732 46.1436 51.6461 46.4823 51.5544 46.8061C51.4627 47.1299 51.3081 47.4324 51.0995 47.6965C49.182 50.1313 46.7366 52.0989 43.9477 53.4507C41.1588 54.8025 38.0994 55.5033 35.0002 55.5002C31.8964 55.5032 28.8326 54.8004 26.0405 53.4449C23.2484 52.0894 20.8011 50.1167 18.8837 47.676C18.6756 47.4115 18.5215 47.1086 18.4304 46.7845C18.3393 46.4605 18.3129 46.1217 18.3527 45.7875C18.3925 45.4532 18.4977 45.1301 18.6624 44.8365C18.8271 44.543 19.048 44.2847 19.3125 44.0765C19.577 43.8683 19.8799 43.7143 20.204 43.6232C20.528 43.532 20.8668 43.5056 21.2011 43.5455C21.5353 43.5853 21.8584 43.6905 22.152 43.8552C22.4456 44.0199 22.7038 44.2408 22.912 44.5053M24.7502 23.896C25.321 23.8798 25.8892 23.9783 26.4213 24.1856C26.9533 24.3929 27.4384 24.7048 27.8479 25.1028C28.2573 25.5008 28.5828 25.9769 28.805 26.5029C29.0273 27.0289 29.1418 27.5941 29.1418 28.1651C29.1418 28.7361 29.0273 29.3014 28.805 29.8274C28.5828 30.3534 28.2573 30.8294 27.8479 31.2275C27.4384 31.6255 26.9533 31.9374 26.4213 32.1446C25.8892 32.3519 25.321 32.4504 24.7502 32.4342C23.6388 32.4028 22.5836 31.9392 21.8086 31.142C21.0337 30.3449 20.6001 29.2769 20.6001 28.1651C20.6001 27.0533 21.0337 25.9854 21.8086 25.1882C22.5836 24.391 23.6388 23.9274 24.7502 23.896ZM45.2502 23.896C45.821 23.8798 46.3892 23.9783 46.9213 24.1856C47.4533 24.3929 47.9384 24.7048 48.3479 25.1028C48.7573 25.5008 49.0828 25.9769 49.305 26.5029C49.5273 27.0289 49.6418 27.5941 49.6418 28.1651C49.6418 28.7361 49.5273 29.3014 49.305 29.8274C49.0828 30.3534 48.7573 30.8294 48.3479 31.2275C47.9384 31.6255 47.4533 31.9374 46.9213 32.1446C46.3892 32.3519 45.821 32.4504 45.2502 32.4342C44.1388 32.4028 43.0836 31.9392 42.3086 31.142C41.5337 30.3449 41.1001 29.2769 41.1001 28.1651C41.1001 27.0533 41.5337 25.9854 42.3086 25.1882C43.0836 24.391 44.1388 23.9274 45.2502 23.896Z" fill="#B2B2B2"/>
</svg>
