<svg width="70" height="70" viewBox="0 0 70 70" fill="none" xmlns="http://www.w3.org/2000/svg">
<path d="M29.021 28.1668C29.0371 27.596 28.9387 27.0278 28.7314 26.4957C28.5241 25.9637 28.2122 25.4786 27.8142 25.0691C27.4162 24.6597 26.9401 24.3342 26.4141 24.112C25.8881 23.8897 25.3229 23.7752 24.7519 23.7752C24.1809 23.7752 23.6156 23.8897 23.0896 24.112C22.5636 24.3342 22.0876 24.6597 21.6895 25.0691C21.2915 25.4786 20.9796 25.9637 20.7724 26.4957C20.5651 27.0278 20.4666 27.596 20.4827 28.1668C20.5142 29.2782 20.9778 30.3334 21.7749 31.1084C22.5721 31.8833 23.6401 32.3169 24.7519 32.3169C25.8637 32.3169 26.9316 31.8833 27.7288 31.1084C28.526 30.3334 28.9896 29.2782 29.021 28.1668ZM49.521 28.1668C49.5371 27.596 49.4387 27.0278 49.2314 26.4957C49.0241 25.9637 48.7122 25.4786 48.3142 25.0691C47.9162 24.6597 47.4401 24.3342 46.9141 24.112C46.3881 23.8897 45.8229 23.7752 45.2519 23.7752C44.6809 23.7752 44.1156 23.8897 43.5896 24.112C43.0636 24.3342 42.5876 24.6597 42.1895 25.0691C41.7915 25.4786 41.4796 25.9637 41.2724 26.4957C41.0651 27.0278 40.9666 27.596 40.9827 28.1668C41.0142 29.2782 41.4778 30.3334 42.2749 31.1084C43.0721 31.8833 44.1401 32.3169 45.2519 32.3169C46.3637 32.3169 47.4316 31.8833 48.2288 31.1084C49.026 30.3334 49.4896 29.2782 49.521 28.1668ZM28.6315 45.6123C28.0492 45.2705 27.3555 45.1724 26.7012 45.3393C26.0469 45.5061 25.4849 45.9245 25.1374 46.5034C24.7898 47.0823 24.6848 47.775 24.8452 48.4309C25.0056 49.0868 25.4184 49.6529 25.9938 50.0062C28.6144 51.5778 31.8705 52.2953 35.0002 52.2953C38.1298 52.2953 41.3893 51.5778 44.0065 50.0062C44.2985 49.8347 44.5537 49.6071 44.7573 49.3365C44.9608 49.0659 45.1087 48.7576 45.1924 48.4294C45.2761 48.1013 45.2939 47.7598 45.2448 47.4247C45.1957 47.0897 45.0807 46.7677 44.9064 46.4773C44.7321 46.187 44.502 45.934 44.2294 45.7332C43.9567 45.5323 43.647 45.3875 43.318 45.307C42.9891 45.2266 42.6474 45.2122 42.3129 45.2646C41.9783 45.317 41.6574 45.4352 41.3688 45.6123C39.7186 46.6032 37.426 47.1703 35.0002 47.1703C32.5743 47.1703 30.2852 46.6032 28.6315 45.6123ZM69.1737 35.0002C69.1737 16.1265 53.8738 0.82666 35.0002 0.82666C16.1265 0.82666 0.833497 16.1265 0.833497 35.0002C0.83008 53.8704 16.1265 69.1668 35.0002 69.1668C53.8738 69.1668 69.1737 53.867 69.1737 34.9967M5.95508 35.0002C5.91342 31.1592 6.63397 27.3481 8.07503 23.7874C9.51608 20.2268 11.649 16.9873 14.3504 14.2564C17.0518 11.5256 20.2679 9.35764 23.8128 7.87805C27.3576 6.39846 31.1607 5.63663 35.0019 5.63663C38.8431 5.63663 42.6462 6.39846 46.191 7.87805C49.7358 9.35764 52.952 11.5256 55.6533 14.2564C58.3547 16.9873 60.4877 20.2268 61.9287 23.7874C63.3698 27.3481 64.0903 31.1592 64.0487 35.0002C63.9657 42.6493 60.8689 49.9569 55.4306 55.3366C49.9923 60.7163 42.6514 63.7336 35.0019 63.7336C27.3523 63.7336 20.0115 60.7163 14.5732 55.3366C9.13485 49.9569 6.03804 42.6493 5.95508 35.0002Z" fill="#B2B2B2"/>
</svg>
